<?xml version="1.0" encoding="utf-8"?>
<svg version="1.0" x="0px" y="0px" viewBox="0 0 100 125" enable-background="new 0 0 100 100" xmlns="http://www.w3.org/2000/svg">
  <path d="M85.286,55.527c-4.596,4.594-10.579,7.279-17.005,7.715c3.132-3.531,5.052-8.16,5.052-13.242h-6.666  c0,7.363-5.974,13.334-13.334,13.334V46.667c8.535,0,17.064-3.255,23.568-9.761l-4.714-4.713  c-5.029,5.031-11.726,7.803-18.841,7.806c0.059-7.031,2.815-13.635,7.799-18.618l-4.713-4.714c-1.872,1.872-3.49,3.986-4.877,6.257  c-1.585-4.722-4.225-9.165-7.981-12.923l-4.714,4.713c5.033,5.033,7.807,11.732,7.807,18.854V50  c-7.363,0-13.334-5.973-13.334-13.333h-6.666c0,11.029,8.971,20,20,20v6.668H33.333C25.97,63.334,20,57.363,20,50h-6.667  c0,6.402,3.034,12.096,7.729,15.762c-4.023,1.625-7.8,4.068-11.062,7.33l4.714,4.715C19.746,72.773,26.445,70,33.567,70h13.1v20  h6.666V70h13.1c8.535,0,17.063-3.256,23.567-9.76L85.286,55.527z" style="fill: rgb(255, 255, 255);"/>
</svg>